<?xml version="1.0" encoding="UTF-8" standalone="no"?>
<!DOCTYPE svg PUBLIC "-//W3C//DTD SVG 1.1//EN"
 "http://www.w3.org/Graphics/SVG/1.1/DTD/svg11.dtd">
<!-- Generated by graphviz version 8.1.0 (20230707.0739)
 -->
<!-- Pages: 1 -->
<svg width="476pt" height="116pt"
 viewBox="0.00 0.00 475.78 116.00" xmlns="http://www.w3.org/2000/svg" xmlns:xlink="http://www.w3.org/1999/xlink">
<g id="graph0" class="graph" transform="scale(1 1) rotate(0) translate(4 112)">
<polygon fill="white" stroke="none" points="-4,4 -4,-112 471.78,-112 471.78,4 -4,4"/>
<!-- 1 -->
<g id="node1" class="node">
<title>1</title>
<ellipse fill="black" stroke="black" cx="31.39" cy="-90" rx="27" ry="18"/>
<text text-anchor="middle" x="31.39" y="-84.95" font-family="Times,serif" font-size="14.00">0</text>
</g>
<!-- [2, 5] -->
<g id="node7" class="node">
<title>[2, 5]</title>
<ellipse fill="none" stroke="black" cx="31.39" cy="-18" rx="31.39" ry="18"/>
<text text-anchor="middle" x="31.39" y="-12.95" font-family="Times,serif" font-size="14.00">[2, 5]</text>
</g>
<!-- 1&#45;&gt;[2, 5] -->
<g id="edge1" class="edge">
<title>1&#45;&gt;[2, 5]</title>
<path fill="none" stroke="black" d="M31.39,-71.7C31.39,-64.24 31.39,-55.32 31.39,-46.97"/>
<polygon fill="black" stroke="black" points="34.89,-47.1 31.39,-37.1 27.89,-47.1 34.89,-47.1"/>
</g>
<!-- 2 -->
<g id="node2" class="node">
<title>2</title>
<ellipse fill="gray" stroke="black" cx="112.39" cy="-90" rx="27" ry="18"/>
<text text-anchor="middle" x="112.39" y="-84.95" font-family="Times,serif" font-size="14.00">1</text>
</g>
<!-- [1, 3] -->
<g id="node8" class="node">
<title>[1, 3]</title>
<ellipse fill="none" stroke="black" cx="112.39" cy="-18" rx="31.39" ry="18"/>
<text text-anchor="middle" x="112.39" y="-12.95" font-family="Times,serif" font-size="14.00">[1, 3]</text>
</g>
<!-- 2&#45;&gt;[1, 3] -->
<g id="edge2" class="edge">
<title>2&#45;&gt;[1, 3]</title>
<path fill="none" stroke="black" d="M112.39,-71.7C112.39,-64.24 112.39,-55.32 112.39,-46.97"/>
<polygon fill="black" stroke="black" points="115.89,-47.1 112.39,-37.1 108.89,-47.1 115.89,-47.1"/>
</g>
<!-- 3 -->
<g id="node3" class="node">
<title>3</title>
<ellipse fill="white" stroke="black" cx="193.39" cy="-90" rx="27" ry="18"/>
<text text-anchor="middle" x="193.39" y="-84.95" font-family="Times,serif" font-size="14.00">∞</text>
</g>
<!-- [2, 4] -->
<g id="node9" class="node">
<title>[2, 4]</title>
<ellipse fill="none" stroke="black" cx="193.39" cy="-18" rx="31.39" ry="18"/>
<text text-anchor="middle" x="193.39" y="-12.95" font-family="Times,serif" font-size="14.00">[2, 4]</text>
</g>
<!-- 3&#45;&gt;[2, 4] -->
<g id="edge3" class="edge">
<title>3&#45;&gt;[2, 4]</title>
<path fill="none" stroke="black" d="M193.39,-71.7C193.39,-64.24 193.39,-55.32 193.39,-46.97"/>
<polygon fill="black" stroke="black" points="196.89,-47.1 193.39,-37.1 189.89,-47.1 196.89,-47.1"/>
</g>
<!-- 4 -->
<g id="node4" class="node">
<title>4</title>
<ellipse fill="white" stroke="black" cx="274.39" cy="-90" rx="27" ry="18"/>
<text text-anchor="middle" x="274.39" y="-84.95" font-family="Times,serif" font-size="14.00">∞</text>
</g>
<!-- [3, 6] -->
<g id="node10" class="node">
<title>[3, 6]</title>
<ellipse fill="none" stroke="black" cx="274.39" cy="-18" rx="31.39" ry="18"/>
<text text-anchor="middle" x="274.39" y="-12.95" font-family="Times,serif" font-size="14.00">[3, 6]</text>
</g>
<!-- 4&#45;&gt;[3, 6] -->
<g id="edge4" class="edge">
<title>4&#45;&gt;[3, 6]</title>
<path fill="none" stroke="black" d="M274.39,-71.7C274.39,-64.24 274.39,-55.32 274.39,-46.97"/>
<polygon fill="black" stroke="black" points="277.89,-47.1 274.39,-37.1 270.89,-47.1 277.89,-47.1"/>
</g>
<!-- 5 -->
<g id="node5" class="node">
<title>5</title>
<ellipse fill="gray" stroke="black" cx="355.39" cy="-90" rx="27" ry="18"/>
<text text-anchor="middle" x="355.39" y="-84.95" font-family="Times,serif" font-size="14.00">1</text>
</g>
<!-- [1, 6] -->
<g id="node11" class="node">
<title>[1, 6]</title>
<ellipse fill="none" stroke="black" cx="355.39" cy="-18" rx="31.39" ry="18"/>
<text text-anchor="middle" x="355.39" y="-12.95" font-family="Times,serif" font-size="14.00">[1, 6]</text>
</g>
<!-- 5&#45;&gt;[1, 6] -->
<g id="edge5" class="edge">
<title>5&#45;&gt;[1, 6]</title>
<path fill="none" stroke="black" d="M355.39,-71.7C355.39,-64.24 355.39,-55.32 355.39,-46.97"/>
<polygon fill="black" stroke="black" points="358.89,-47.1 355.39,-37.1 351.89,-47.1 358.89,-47.1"/>
</g>
<!-- 6 -->
<g id="node6" class="node">
<title>6</title>
<ellipse fill="white" stroke="black" cx="436.39" cy="-90" rx="27" ry="18"/>
<text text-anchor="middle" x="436.39" y="-84.95" font-family="Times,serif" font-size="14.00">∞</text>
</g>
<!-- [5, 4] -->
<g id="node12" class="node">
<title>[5, 4]</title>
<ellipse fill="none" stroke="black" cx="436.39" cy="-18" rx="31.39" ry="18"/>
<text text-anchor="middle" x="436.39" y="-12.95" font-family="Times,serif" font-size="14.00">[5, 4]</text>
</g>
<!-- 6&#45;&gt;[5, 4] -->
<g id="edge6" class="edge">
<title>6&#45;&gt;[5, 4]</title>
<path fill="none" stroke="black" d="M436.39,-71.7C436.39,-64.24 436.39,-55.32 436.39,-46.97"/>
<polygon fill="black" stroke="black" points="439.89,-47.1 436.39,-37.1 432.89,-47.1 439.89,-47.1"/>
</g>
</g>
</svg>
