<?xml version="1.0" encoding="us-ascii" standalone="no"?><svg xmlns="http://www.w3.org/2000/svg" xmlns:xlink="http://www.w3.org/1999/xlink" contentStyleType="text/css" height="886px" preserveAspectRatio="none" style="width:968px;height:886px;background:#FFFFFF;" version="1.1" viewBox="0 0 968 886" width="968px" zoomAndPan="magnify"><defs/><g><!--class ConsoleService--><g id="elem_ConsoleService"><rect codeLine="5" fill="#FFFFFF" height="141.7813" id="ConsoleService" rx="2.5" ry="2.5" style="stroke:#000000;stroke-width:1.0;" width="396" x="12" y="149"/><ellipse cx="151.25" cy="163" fill="#FFFFFF" rx="9" ry="9" style="stroke:#000000;stroke-width:1.0;"/><path d="M153.5938,158.6719 C152.6563,158.2344 152.0625,158.0938 151.1875,158.0938 C148.5625,158.0938 146.5625,160.1719 146.5625,162.8906 L146.5625,164.0156 C146.5625,166.5938 148.6719,168.4844 151.5625,168.4844 C152.7813,168.4844 153.9375,168.1875 154.6875,167.6406 C155.2656,167.2344 155.5938,166.7813 155.5938,166.3906 C155.5938,165.9375 155.2031,165.5469 154.7344,165.5469 C154.5156,165.5469 154.3125,165.625 154.125,165.8125 C153.6719,166.2969 153.6719,166.2969 153.4844,166.3906 C153.0625,166.6563 152.375,166.7813 151.6094,166.7813 C149.5625,166.7813 148.2656,165.6875 148.2656,163.9844 L148.2656,162.8906 C148.2656,161.1094 149.5156,159.7969 151.25,159.7969 C151.8281,159.7969 152.4375,159.9531 152.9063,160.2031 C153.3906,160.4844 153.5625,160.7031 153.6563,161.1094 C153.7188,161.5156 153.75,161.6406 153.8906,161.7656 C154.0313,161.9063 154.2656,162.0156 154.4844,162.0156 C154.75,162.0156 155.0156,161.875 155.1875,161.6563 C155.2969,161.5 155.3281,161.3125 155.3281,160.8906 L155.3281,159.4688 C155.3281,159.0313 155.3125,158.9063 155.2188,158.75 C155.0625,158.4844 154.7813,158.3438 154.4844,158.3438 C154.1875,158.3438 153.9844,158.4375 153.7656,158.75 L153.5938,158.6719 Z " fill="#000000"/><text fill="#000000" font-family="Verdana" font-size="14" lengthAdjust="spacing" textLength="110" x="168.75" y="167.8467">ConsoleService</text><line style="stroke:#000000;stroke-width:1.0;" x1="13" x2="407" y1="177" y2="177"/><line style="stroke:#000000;stroke-width:1.0;" x1="13" x2="407" y1="185" y2="185"/><ellipse cx="23" cy="198.6484" fill="#FFFFFF" rx="3" ry="3" style="stroke:#000000;stroke-width:1.0;"/><text fill="#000000" font-family="Verdana" font-size="14" lengthAdjust="spacing" textLength="125" x="30" y="201.9951">ConsoleService():</text><ellipse cx="23" cy="214.9453" fill="#FFFFFF" rx="3" ry="3" style="stroke:#000000;stroke-width:1.0;"/><text fill="#000000" font-family="Verdana" font-size="14" lengthAdjust="spacing" textLength="177" x="30" y="218.292">promptFilePath(): String</text><ellipse cx="23" cy="231.2422" fill="#FFFFFF" rx="3" ry="3" style="stroke:#000000;stroke-width:1.0;"/><text fill="#000000" font-family="Verdana" font-size="14" lengthAdjust="spacing" textLength="183" x="30" y="234.5889">promptMenuOption(): int</text><ellipse cx="23" cy="247.5391" fill="#FFFFFF" rx="3" ry="3" style="stroke:#000000;stroke-width:1.0;"/><text fill="#000000" font-family="Verdana" font-size="14" lengthAdjust="spacing" textLength="159" x="30" y="250.8857">promptPersonID(): int</text><ellipse cx="23" cy="263.8359" fill="#FFFFFF" rx="3" ry="3" style="stroke:#000000;stroke-width:1.0;"/><text fill="#000000" font-family="Verdana" font-size="14" lengthAdjust="spacing" textLength="305" x="30" y="267.1826">displayFriendsList(int, Set&lt;Integer&gt;): void</text><ellipse cx="23" cy="280.1328" fill="#FFFFFF" rx="3" ry="3" style="stroke:#000000;stroke-width:1.0;"/><text fill="#000000" font-family="Verdana" font-size="14" lengthAdjust="spacing" textLength="372" x="30" y="283.4795">displayConnectionPath(int, int, List&lt;Integer&gt;): void</text></g><!--class Edge--><g id="elem_Edge"><rect codeLine="13" fill="#FFFFFF" height="125.4844" id="Edge" rx="2.5" ry="2.5" style="stroke:#000000;stroke-width:1.0;" width="123" x="658.5" y="754"/><ellipse cx="698.25" cy="768" fill="#FFFFFF" rx="9" ry="9" style="stroke:#000000;stroke-width:1.0;"/><path d="M700.5938,763.6719 C699.6563,763.2344 699.0625,763.0938 698.1875,763.0938 C695.5625,763.0938 693.5625,765.1719 693.5625,767.8906 L693.5625,769.0156 C693.5625,771.5938 695.6719,773.4844 698.5625,773.4844 C699.7813,773.4844 700.9375,773.1875 701.6875,772.6406 C702.2656,772.2344 702.5938,771.7813 702.5938,771.3906 C702.5938,770.9375 702.2031,770.5469 701.7344,770.5469 C701.5156,770.5469 701.3125,770.625 701.125,770.8125 C700.6719,771.2969 700.6719,771.2969 700.4844,771.3906 C700.0625,771.6563 699.375,771.7813 698.6094,771.7813 C696.5625,771.7813 695.2656,770.6875 695.2656,768.9844 L695.2656,767.8906 C695.2656,766.1094 696.5156,764.7969 698.25,764.7969 C698.8281,764.7969 699.4375,764.9531 699.9063,765.2031 C700.3906,765.4844 700.5625,765.7031 700.6563,766.1094 C700.7188,766.5156 700.75,766.6406 700.8906,766.7656 C701.0313,766.9063 701.2656,767.0156 701.4844,767.0156 C701.75,767.0156 702.0156,766.875 702.1875,766.6563 C702.2969,766.5 702.3281,766.3125 702.3281,765.8906 L702.3281,764.4688 C702.3281,764.0313 702.3125,763.9063 702.2188,763.75 C702.0625,763.4844 701.7813,763.3438 701.4844,763.3438 C701.1875,763.3438 700.9844,763.4375 700.7656,763.75 L700.5938,763.6719 Z " fill="#000000"/><text fill="#000000" font-family="Verdana" font-size="14" lengthAdjust="spacing" textLength="36" x="715.75" y="772.8467">Edge</text><line style="stroke:#000000;stroke-width:1.0;" x1="659.5" x2="780.5" y1="782" y2="782"/><rect fill="none" height="6" style="stroke:#000000;stroke-width:1.0;" width="6" x="666.5" y="792.6484"/><text fill="#000000" font-family="Verdana" font-size="14" lengthAdjust="spacing" textLength="75" x="676.5" y="798.9951">target: int</text><rect fill="none" height="6" style="stroke:#000000;stroke-width:1.0;" width="6" x="666.5" y="808.9453"/><text fill="#000000" font-family="Verdana" font-size="14" lengthAdjust="spacing" textLength="76" x="676.5" y="815.292">source: int</text><text fill="#000000" font-family="Verdana" font-size="14" lengthAdjust="spacing" textLength="76" x="676.5" y="831.5889">source: int</text><text fill="#000000" font-family="Verdana" font-size="14" lengthAdjust="spacing" textLength="75" x="676.5" y="847.8857">target: int</text><line style="stroke:#000000;stroke-width:1.0;" x1="659.5" x2="780.5" y1="855.1875" y2="855.1875"/><ellipse cx="669.5" cy="868.8359" fill="#FFFFFF" rx="3" ry="3" style="stroke:#000000;stroke-width:1.0;"/><text fill="#000000" font-family="Verdana" font-size="14" lengthAdjust="spacing" textLength="99" x="676.5" y="872.1826">Edge(int, int):</text></g><!--class FileReader--><g id="elem_FileReader"><rect codeLine="20" fill="#FFFFFF" height="76.5938" id="FileReader" rx="2.5" ry="2.5" style="stroke:#000000;stroke-width:1.0;" width="244" x="301" y="375"/><ellipse cx="381.25" cy="389" fill="#FFFFFF" rx="9" ry="9" style="stroke:#000000;stroke-width:1.0;"/><path d="M383.5938,384.6719 C382.6563,384.2344 382.0625,384.0938 381.1875,384.0938 C378.5625,384.0938 376.5625,386.1719 376.5625,388.8906 L376.5625,390.0156 C376.5625,392.5938 378.6719,394.4844 381.5625,394.4844 C382.7813,394.4844 383.9375,394.1875 384.6875,393.6406 C385.2656,393.2344 385.5938,392.7813 385.5938,392.3906 C385.5938,391.9375 385.2031,391.5469 384.7344,391.5469 C384.5156,391.5469 384.3125,391.625 384.125,391.8125 C383.6719,392.2969 383.6719,392.2969 383.4844,392.3906 C383.0625,392.6563 382.375,392.7813 381.6094,392.7813 C379.5625,392.7813 378.2656,391.6875 378.2656,389.9844 L378.2656,388.8906 C378.2656,387.1094 379.5156,385.7969 381.25,385.7969 C381.8281,385.7969 382.4375,385.9531 382.9063,386.2031 C383.3906,386.4844 383.5625,386.7031 383.6563,387.1094 C383.7188,387.5156 383.75,387.6406 383.8906,387.7656 C384.0313,387.9063 384.2656,388.0156 384.4844,388.0156 C384.75,388.0156 385.0156,387.875 385.1875,387.6563 C385.2969,387.5 385.3281,387.3125 385.3281,386.8906 L385.3281,385.4688 C385.3281,385.0313 385.3125,384.9063 385.2188,384.75 C385.0625,384.4844 384.7813,384.3438 384.4844,384.3438 C384.1875,384.3438 383.9844,384.4375 383.7656,384.75 L383.5938,384.6719 Z " fill="#000000"/><text fill="#000000" font-family="Verdana" font-size="14" lengthAdjust="spacing" textLength="76" x="398.75" y="393.8467">FileReader</text><line style="stroke:#000000;stroke-width:1.0;" x1="302" x2="544" y1="403" y2="403"/><line style="stroke:#000000;stroke-width:1.0;" x1="302" x2="544" y1="411" y2="411"/><ellipse cx="312" cy="424.6484" fill="#FFFFFF" rx="3" ry="3" style="stroke:#000000;stroke-width:1.0;"/><text fill="#000000" font-family="Verdana" font-size="14" lengthAdjust="spacing" textLength="91" x="319" y="427.9951">FileReader():</text><ellipse cx="312" cy="440.9453" fill="#FFFFFF" rx="3" ry="3" style="stroke:#000000;stroke-width:1.0;"/><text fill="#000000" font-family="Verdana" font-size="14" lengthAdjust="spacing" textLength="220" x="319" y="444.292">readFile(String): Relationship[]</text></g><!--class Graph--><g id="elem_Graph"><rect codeLine="24" fill="#FFFFFF" height="158.0781" id="Graph" rx="2.5" ry="2.5" style="stroke:#000000;stroke-width:1.0;" width="483" x="478.5" y="536"/><ellipse cx="694.25" cy="550" fill="#FFFFFF" rx="9" ry="9" style="stroke:#000000;stroke-width:1.0;"/><path d="M696.5938,545.6719 C695.6563,545.2344 695.0625,545.0938 694.1875,545.0938 C691.5625,545.0938 689.5625,547.1719 689.5625,549.8906 L689.5625,551.0156 C689.5625,553.5938 691.6719,555.4844 694.5625,555.4844 C695.7813,555.4844 696.9375,555.1875 697.6875,554.6406 C698.2656,554.2344 698.5938,553.7813 698.5938,553.3906 C698.5938,552.9375 698.2031,552.5469 697.7344,552.5469 C697.5156,552.5469 697.3125,552.625 697.125,552.8125 C696.6719,553.2969 696.6719,553.2969 696.4844,553.3906 C696.0625,553.6563 695.375,553.7813 694.6094,553.7813 C692.5625,553.7813 691.2656,552.6875 691.2656,550.9844 L691.2656,549.8906 C691.2656,548.1094 692.5156,546.7969 694.25,546.7969 C694.8281,546.7969 695.4375,546.9531 695.9063,547.2031 C696.3906,547.4844 696.5625,547.7031 696.6563,548.1094 C696.7188,548.5156 696.75,548.6406 696.8906,548.7656 C697.0313,548.9063 697.2656,549.0156 697.4844,549.0156 C697.75,549.0156 698.0156,548.875 698.1875,548.6563 C698.2969,548.5 698.3281,548.3125 698.3281,547.8906 L698.3281,546.4688 C698.3281,546.0313 698.3125,545.9063 698.2188,545.75 C698.0625,545.4844 697.7813,545.3438 697.4844,545.3438 C697.1875,545.3438 696.9844,545.4375 696.7656,545.75 L696.5938,545.6719 Z " fill="#000000"/><text fill="#000000" font-family="Verdana" font-size="14" lengthAdjust="spacing" textLength="44" x="711.75" y="554.8467">Graph</text><line style="stroke:#000000;stroke-width:1.0;" x1="479.5" x2="960.5" y1="564" y2="564"/><text fill="#000000" font-family="Verdana" font-size="14" lengthAdjust="spacing" textLength="135" x="484.5" y="580.9951">edges: Set&lt;Edge&gt;</text><line style="stroke:#000000;stroke-width:1.0;" x1="479.5" x2="960.5" y1="588.2969" y2="588.2969"/><ellipse cx="489.5" cy="601.9453" fill="#FFFFFF" rx="3" ry="3" style="stroke:#000000;stroke-width:1.0;"/><text fill="#000000" font-family="Verdana" font-size="14" lengthAdjust="spacing" textLength="59" x="496.5" y="605.292">Graph():</text><ellipse cx="489.5" cy="618.2422" fill="#FFFFFF" rx="3" ry="3" style="stroke:#000000;stroke-width:1.0;"/><text fill="#000000" font-family="Verdana" font-size="14" lengthAdjust="spacing" textLength="144" x="496.5" y="621.5889">addVertex(int): void</text><ellipse cx="489.5" cy="634.5391" fill="#FFFFFF" rx="3" ry="3" style="stroke:#000000;stroke-width:1.0;"/><text fill="#000000" font-family="Verdana" font-size="14" lengthAdjust="spacing" textLength="459" x="496.5" y="637.8857">reconstructPath(int, int, Map&lt;Integer, Integer&gt;): List&lt;Integer&gt;</text><ellipse cx="489.5" cy="650.8359" fill="#FFFFFF" rx="3" ry="3" style="stroke:#000000;stroke-width:1.0;"/><text fill="#000000" font-family="Verdana" font-size="14" lengthAdjust="spacing" textLength="159" x="496.5" y="654.1826">addEdge(int, int): void</text><ellipse cx="489.5" cy="667.1328" fill="#FFFFFF" rx="3" ry="3" style="stroke:#000000;stroke-width:1.0;"/><text fill="#000000" font-family="Verdana" font-size="14" lengthAdjust="spacing" textLength="237" x="496.5" y="670.4795">getNeighbors(int): Set&lt;Integer&gt;</text><ellipse cx="489.5" cy="683.4297" fill="#FFFFFF" rx="3" ry="3" style="stroke:#000000;stroke-width:1.0;"/><text fill="#000000" font-family="Verdana" font-size="14" lengthAdjust="spacing" textLength="344" x="496.5" y="686.7764">breadthFirstSearch(int): Map&lt;Integer, Integer&gt;</text></g><!--class Main--><g id="elem_Main"><rect codeLine="33" fill="#FFFFFF" height="76.5938" id="Main" rx="2.5" ry="2.5" style="stroke:#000000;stroke-width:1.0;" width="162" x="310" y="12"/><ellipse cx="370.75" cy="26" fill="#FFFFFF" rx="9" ry="9" style="stroke:#000000;stroke-width:1.0;"/><path d="M373.0938,21.6719 C372.1563,21.2344 371.5625,21.0938 370.6875,21.0938 C368.0625,21.0938 366.0625,23.1719 366.0625,25.8906 L366.0625,27.0156 C366.0625,29.5938 368.1719,31.4844 371.0625,31.4844 C372.2813,31.4844 373.4375,31.1875 374.1875,30.6406 C374.7656,30.2344 375.0938,29.7813 375.0938,29.3906 C375.0938,28.9375 374.7031,28.5469 374.2344,28.5469 C374.0156,28.5469 373.8125,28.625 373.625,28.8125 C373.1719,29.2969 373.1719,29.2969 372.9844,29.3906 C372.5625,29.6563 371.875,29.7813 371.1094,29.7813 C369.0625,29.7813 367.7656,28.6875 367.7656,26.9844 L367.7656,25.8906 C367.7656,24.1094 369.0156,22.7969 370.75,22.7969 C371.3281,22.7969 371.9375,22.9531 372.4063,23.2031 C372.8906,23.4844 373.0625,23.7031 373.1563,24.1094 C373.2188,24.5156 373.25,24.6406 373.3906,24.7656 C373.5313,24.9063 373.7656,25.0156 373.9844,25.0156 C374.25,25.0156 374.5156,24.875 374.6875,24.6563 C374.7969,24.5 374.8281,24.3125 374.8281,23.8906 L374.8281,22.4688 C374.8281,22.0313 374.8125,21.9063 374.7188,21.75 C374.5625,21.4844 374.2813,21.3438 373.9844,21.3438 C373.6875,21.3438 373.4844,21.4375 373.2656,21.75 L373.0938,21.6719 Z " fill="#000000"/><text fill="#000000" font-family="Verdana" font-size="14" lengthAdjust="spacing" textLength="33" x="388.25" y="30.8467">Main</text><line style="stroke:#000000;stroke-width:1.0;" x1="311" x2="471" y1="40" y2="40"/><line style="stroke:#000000;stroke-width:1.0;" x1="311" x2="471" y1="48" y2="48"/><ellipse cx="321" cy="61.6484" fill="#FFFFFF" rx="3" ry="3" style="stroke:#000000;stroke-width:1.0;"/><text fill="#000000" font-family="Verdana" font-size="14" lengthAdjust="spacing" textLength="48" x="328" y="64.9951">Main():</text><ellipse cx="321" cy="77.9453" fill="#FFFFFF" rx="3" ry="3" style="stroke:#000000;stroke-width:1.0;"/><text fill="#000000" font-family="Verdana" font-size="14" lengthAdjust="spacing" textLength="138" x="328" y="81.292">main(String[]): void</text></g><!--class Network--><g id="elem_Network"><rect codeLine="37" fill="#FFFFFF" height="125.4844" id="Network" rx="2.5" ry="2.5" style="stroke:#000000;stroke-width:1.0;" width="279" x="580.5" y="351"/><ellipse cx="685.75" cy="365" fill="#FFFFFF" rx="9" ry="9" style="stroke:#000000;stroke-width:1.0;"/><path d="M688.0938,360.6719 C687.1563,360.2344 686.5625,360.0938 685.6875,360.0938 C683.0625,360.0938 681.0625,362.1719 681.0625,364.8906 L681.0625,366.0156 C681.0625,368.5938 683.1719,370.4844 686.0625,370.4844 C687.2813,370.4844 688.4375,370.1875 689.1875,369.6406 C689.7656,369.2344 690.0938,368.7813 690.0938,368.3906 C690.0938,367.9375 689.7031,367.5469 689.2344,367.5469 C689.0156,367.5469 688.8125,367.625 688.625,367.8125 C688.1719,368.2969 688.1719,368.2969 687.9844,368.3906 C687.5625,368.6563 686.875,368.7813 686.1094,368.7813 C684.0625,368.7813 682.7656,367.6875 682.7656,365.9844 L682.7656,364.8906 C682.7656,363.1094 684.0156,361.7969 685.75,361.7969 C686.3281,361.7969 686.9375,361.9531 687.4063,362.2031 C687.8906,362.4844 688.0625,362.7031 688.1563,363.1094 C688.2188,363.5156 688.25,363.6406 688.3906,363.7656 C688.5313,363.9063 688.7656,364.0156 688.9844,364.0156 C689.25,364.0156 689.5156,363.875 689.6875,363.6563 C689.7969,363.5 689.8281,363.3125 689.8281,362.8906 L689.8281,361.4688 C689.8281,361.0313 689.8125,360.9063 689.7188,360.75 C689.5625,360.4844 689.2813,360.3438 688.9844,360.3438 C688.6875,360.3438 688.4844,360.4375 688.2656,360.75 L688.0938,360.6719 Z " fill="#000000"/><text fill="#000000" font-family="Verdana" font-size="14" lengthAdjust="spacing" textLength="61" x="703.25" y="369.8467">Network</text><line style="stroke:#000000;stroke-width:1.0;" x1="581.5" x2="858.5" y1="379" y2="379"/><rect fill="none" height="6" style="stroke:#000000;stroke-width:1.0;" width="6" x="588.5" y="389.6484"/><text fill="#000000" font-family="Verdana" font-size="14" lengthAdjust="spacing" textLength="95" x="598.5" y="395.9951">graph: Graph</text><text fill="#000000" font-family="Verdana" font-size="14" lengthAdjust="spacing" textLength="95" x="598.5" y="412.292">graph: Graph</text><line style="stroke:#000000;stroke-width:1.0;" x1="581.5" x2="858.5" y1="419.5938" y2="419.5938"/><ellipse cx="591.5" cy="433.2422" fill="#FFFFFF" rx="3" ry="3" style="stroke:#000000;stroke-width:1.0;"/><text fill="#000000" font-family="Verdana" font-size="14" lengthAdjust="spacing" textLength="76" x="598.5" y="436.5889">Network():</text><ellipse cx="591.5" cy="449.5391" fill="#FFFFFF" rx="3" ry="3" style="stroke:#000000;stroke-width:1.0;"/><text fill="#000000" font-family="Verdana" font-size="14" lengthAdjust="spacing" textLength="233" x="598.5" y="452.8857">getFriendsOf(int): Set&lt;Integer&gt;</text><ellipse cx="591.5" cy="465.8359" fill="#FFFFFF" rx="3" ry="3" style="stroke:#000000;stroke-width:1.0;"/><text fill="#000000" font-family="Verdana" font-size="14" lengthAdjust="spacing" textLength="255" x="598.5" y="469.1826">addRelationship(Relationship): void</text></g><!--class NetworkService--><g id="elem_NetworkService"><rect codeLine="44" fill="#FFFFFF" height="109.1875" id="NetworkService" rx="2.5" ry="2.5" style="stroke:#000000;stroke-width:1.0;" width="257" x="443.5" y="165.5"/><ellipse cx="511.25" cy="179.5" fill="#FFFFFF" rx="9" ry="9" style="stroke:#000000;stroke-width:1.0;"/><path d="M513.5938,175.1719 C512.6563,174.7344 512.0625,174.5938 511.1875,174.5938 C508.5625,174.5938 506.5625,176.6719 506.5625,179.3906 L506.5625,180.5156 C506.5625,183.0938 508.6719,184.9844 511.5625,184.9844 C512.7813,184.9844 513.9375,184.6875 514.6875,184.1406 C515.2656,183.7344 515.5938,183.2813 515.5938,182.8906 C515.5938,182.4375 515.2031,182.0469 514.7344,182.0469 C514.5156,182.0469 514.3125,182.125 514.125,182.3125 C513.6719,182.7969 513.6719,182.7969 513.4844,182.8906 C513.0625,183.1563 512.375,183.2813 511.6094,183.2813 C509.5625,183.2813 508.2656,182.1875 508.2656,180.4844 L508.2656,179.3906 C508.2656,177.6094 509.5156,176.2969 511.25,176.2969 C511.8281,176.2969 512.4375,176.4531 512.9063,176.7031 C513.3906,176.9844 513.5625,177.2031 513.6563,177.6094 C513.7188,178.0156 513.75,178.1406 513.8906,178.2656 C514.0313,178.4063 514.2656,178.5156 514.4844,178.5156 C514.75,178.5156 515.0156,178.375 515.1875,178.1563 C515.2969,178 515.3281,177.8125 515.3281,177.3906 L515.3281,175.9688 C515.3281,175.5313 515.3125,175.4063 515.2188,175.25 C515.0625,174.9844 514.7813,174.8438 514.4844,174.8438 C514.1875,174.8438 513.9844,174.9375 513.7656,175.25 L513.5938,175.1719 Z " fill="#000000"/><text fill="#000000" font-family="Verdana" font-size="14" lengthAdjust="spacing" textLength="114" x="528.75" y="184.3467">NetworkService</text><line style="stroke:#000000;stroke-width:1.0;" x1="444.5" x2="699.5" y1="193.5" y2="193.5"/><line style="stroke:#000000;stroke-width:1.0;" x1="444.5" x2="699.5" y1="201.5" y2="201.5"/><ellipse cx="454.5" cy="215.1484" fill="#FFFFFF" rx="3" ry="3" style="stroke:#000000;stroke-width:1.0;"/><text fill="#000000" font-family="Verdana" font-size="14" lengthAdjust="spacing" textLength="129" x="461.5" y="218.4951">NetworkService():</text><ellipse cx="454.5" cy="231.4453" fill="#FFFFFF" rx="3" ry="3" style="stroke:#000000;stroke-width:1.0;"/><text fill="#000000" font-family="Verdana" font-size="14" lengthAdjust="spacing" textLength="220" x="461.5" y="234.792">loadRelationships(String): void</text><ellipse cx="454.5" cy="247.7422" fill="#FFFFFF" rx="3" ry="3" style="stroke:#000000;stroke-width:1.0;"/><text fill="#000000" font-family="Verdana" font-size="14" lengthAdjust="spacing" textLength="229" x="461.5" y="251.0889">findPath(int, int): List&lt;Integer&gt;</text><ellipse cx="454.5" cy="264.0391" fill="#FFFFFF" rx="3" ry="3" style="stroke:#000000;stroke-width:1.0;"/><text fill="#000000" font-family="Verdana" font-size="14" lengthAdjust="spacing" textLength="233" x="461.5" y="267.3857">getFriendsOf(int): Set&lt;Integer&gt;</text></g><!--class Relationship--><g id="elem_Relationship"><rect codeLine="50" fill="#FFFFFF" height="125.4844" id="Relationship" rx="2.5" ry="2.5" style="stroke:#000000;stroke-width:1.0;" width="243" x="200.5" y="552.5"/><ellipse cx="273.25" cy="566.5" fill="#FFFFFF" rx="9" ry="9" style="stroke:#000000;stroke-width:1.0;"/><path d="M275.5938,562.1719 C274.6563,561.7344 274.0625,561.5938 273.1875,561.5938 C270.5625,561.5938 268.5625,563.6719 268.5625,566.3906 L268.5625,567.5156 C268.5625,570.0938 270.6719,571.9844 273.5625,571.9844 C274.7813,571.9844 275.9375,571.6875 276.6875,571.1406 C277.2656,570.7344 277.5938,570.2813 277.5938,569.8906 C277.5938,569.4375 277.2031,569.0469 276.7344,569.0469 C276.5156,569.0469 276.3125,569.125 276.125,569.3125 C275.6719,569.7969 275.6719,569.7969 275.4844,569.8906 C275.0625,570.1563 274.375,570.2813 273.6094,570.2813 C271.5625,570.2813 270.2656,569.1875 270.2656,567.4844 L270.2656,566.3906 C270.2656,564.6094 271.5156,563.2969 273.25,563.2969 C273.8281,563.2969 274.4375,563.4531 274.9063,563.7031 C275.3906,563.9844 275.5625,564.2031 275.6563,564.6094 C275.7188,565.0156 275.75,565.1406 275.8906,565.2656 C276.0313,565.4063 276.2656,565.5156 276.4844,565.5156 C276.75,565.5156 277.0156,565.375 277.1875,565.1563 C277.2969,565 277.3281,564.8125 277.3281,564.3906 L277.3281,562.9688 C277.3281,562.5313 277.3125,562.4063 277.2188,562.25 C277.0625,561.9844 276.7813,561.8438 276.4844,561.8438 C276.1875,561.8438 275.9844,561.9375 275.7656,562.25 L275.5938,562.1719 Z " fill="#000000"/><text fill="#000000" font-family="Verdana" font-size="14" lengthAdjust="spacing" textLength="90" x="290.75" y="571.3467">Relationship</text><line style="stroke:#000000;stroke-width:1.0;" x1="201.5" x2="442.5" y1="580.5" y2="580.5"/><rect fill="none" height="6" style="stroke:#000000;stroke-width:1.0;" width="6" x="208.5" y="591.1484"/><text fill="#000000" font-family="Verdana" font-size="14" lengthAdjust="spacing" textLength="42" x="218.5" y="597.4951">id: int</text><rect fill="none" height="6" style="stroke:#000000;stroke-width:1.0;" width="6" x="208.5" y="607.4453"/><text fill="#000000" font-family="Verdana" font-size="14" lengthAdjust="spacing" textLength="72" x="218.5" y="613.792">friend: int</text><text fill="#000000" font-family="Verdana" font-size="14" lengthAdjust="spacing" textLength="72" x="218.5" y="630.0889">friend: int</text><text fill="#000000" font-family="Verdana" font-size="14" lengthAdjust="spacing" textLength="42" x="218.5" y="646.3857">id: int</text><line style="stroke:#000000;stroke-width:1.0;" x1="201.5" x2="442.5" y1="653.6875" y2="653.6875"/><ellipse cx="211.5" cy="667.3359" fill="#FFFFFF" rx="3" ry="3" style="stroke:#000000;stroke-width:1.0;"/><text fill="#000000" font-family="Verdana" font-size="14" lengthAdjust="spacing" textLength="219" x="218.5" y="670.6826">Relationship(Integer, Integer):</text></g><!--link FileReader to Relationship--><g id="link_FileReader_Relationship"><path codeLine="58" d="M372.25,452.351 C372.25,480.713 372.25,513.76 372.25,546.486 " fill="none" id="FileReader-to-Relationship" style="stroke:#595959;stroke-width:1.0;stroke-dasharray:7.0,7.0;"/><polygon fill="#595959" points="372.25,552.486,376.25,543.486,372.25,547.486,368.25,543.486,372.25,552.486" style="stroke:#595959;stroke-width:1.0;"/><text fill="#000000" font-family="Verdana" font-size="13" lengthAdjust="spacing" textLength="41" x="330.25" y="498.4859">create</text></g><!--link Graph to Edge--><g id="link_Graph_Edge"><path codeLine="59" d="M720,694.06 C720,713.906 720,728.931 720,747.853 " fill="none" id="Graph-to-Edge" style="stroke:#595959;stroke-width:1.0;stroke-dasharray:7.0,7.0;"/><polygon fill="#595959" points="720,753.853,724,744.853,720,748.853,716,744.853,720,753.853" style="stroke:#595959;stroke-width:1.0;"/><text fill="#000000" font-family="Verdana" font-size="13" lengthAdjust="spacing" textLength="41" x="678" y="720.0229">create</text></g><!--link Main to ConsoleService--><g id="link_Main_ConsoleService"><path codeLine="60" d="M359,89.387 C359,107.077 359,122.583 359,142.996 " fill="none" id="Main-to-ConsoleService" style="stroke:#595959;stroke-width:1.0;stroke-dasharray:7.0,7.0;"/><polygon fill="#595959" points="359,148.996,363,139.996,359,143.996,355,139.996,359,148.996" style="stroke:#595959;stroke-width:1.0;"/><text fill="#000000" font-family="Verdana" font-size="13" lengthAdjust="spacing" textLength="41" x="317" y="115.2589">create</text></g><!--link Main to NetworkService--><g id="link_Main_NetworkService"><path codeLine="61" d="M457.75,89.387 C457.75,111.867 457.75,134.507 457.75,159.237 " fill="none" id="Main-to-NetworkService" style="stroke:#595959;stroke-width:1.0;stroke-dasharray:7.0,7.0;"/><polygon fill="#595959" points="457.75,165.237,461.75,156.237,457.75,160.237,453.75,156.237,457.75,165.237" style="stroke:#595959;stroke-width:1.0;"/><text fill="#000000" font-family="Verdana" font-size="13" lengthAdjust="spacing" textLength="41" x="415.75" y="123.3789">create</text></g><!--link Network to Graph--><g id="link_Network_Graph"><path codeLine="62" d="M673.5,488.151 C673.5,506.983 673.5,509.896 673.5,529.658 " fill="none" id="Network-Graph" style="stroke:#595959;stroke-width:1.0;"/><polygon fill="#595959" points="673.5,476.151,669.5,482.151,673.5,488.151,677.5,482.151,673.5,476.151" style="stroke:#595959;stroke-width:1.0;"/><polygon fill="#595959" points="673.5,535.658,677.5,526.658,673.5,530.658,669.5,526.658,673.5,535.658" style="stroke:#595959;stroke-width:1.0;"/><text fill="#000000" font-family="Verdana" font-size="13" lengthAdjust="spacing" textLength="8" x="659.3453" y="496.7461">1</text><text fill="#000000" font-family="Verdana" font-size="13" lengthAdjust="spacing" textLength="37" x="631.1172" y="509.92">graph</text><text fill="#000000" font-family="Verdana" font-size="13" lengthAdjust="spacing" textLength="8" x="645.6172" y="525.0528">1</text></g><!--link Network to Graph--><g id="link_Network_Graph"><path codeLine="63" d="M766.5,476.151 C766.5,494.983 766.5,509.896 766.5,529.658 " fill="none" id="Network-to-Graph" style="stroke:#595959;stroke-width:1.0;stroke-dasharray:7.0,7.0;"/><polygon fill="#595959" points="766.5,535.658,770.5,526.658,766.5,530.658,762.5,526.658,766.5,535.658" style="stroke:#595959;stroke-width:1.0;"/><text fill="#000000" font-family="Verdana" font-size="13" lengthAdjust="spacing" textLength="41" x="724.5" y="501.9719">create</text></g><!--link NetworkService to FileReader--><g id="link_NetworkService_FileReader"><path codeLine="64" d="M477.333,286.673 C477.333,318.636 477.333,340.208 477.333,368.915 " fill="none" id="NetworkService-FileReader" style="stroke:#595959;stroke-width:1.0;"/><polygon fill="#595959" points="477.333,274.673,473.333,280.673,477.333,286.673,481.333,280.673,477.333,274.673" style="stroke:#595959;stroke-width:1.0;"/><polygon fill="#595959" points="477.333,374.915,481.333,365.915,477.333,369.915,473.333,365.915,477.333,374.915" style="stroke:#595959;stroke-width:1.0;"/><text fill="#000000" font-family="Verdana" font-size="13" lengthAdjust="spacing" textLength="8" x="456.6913" y="294.7023">1</text><text fill="#000000" font-family="Verdana" font-size="13" lengthAdjust="spacing" textLength="65" x="415.6762" y="348.8281">fileReader</text><text fill="#000000" font-family="Verdana" font-size="13" lengthAdjust="spacing" textLength="8" x="444.1762" y="363.9609">1</text></g><!--link NetworkService to FileReader--><g id="link_NetworkService_FileReader"><path codeLine="65" d="M511.167,274.673 C511.167,306.636 511.167,340.208 511.167,368.915 " fill="none" id="NetworkService-to-FileReader" style="stroke:#595959;stroke-width:1.0;stroke-dasharray:7.0,7.0;"/><polygon fill="#595959" points="511.167,374.915,515.167,365.915,511.167,369.915,507.167,365.915,511.167,374.915" style="stroke:#595959;stroke-width:1.0;"/><text fill="#000000" font-family="Verdana" font-size="13" lengthAdjust="spacing" textLength="41" x="469.167" y="320.8609">create</text></g><!--link NetworkService to Network--><g id="link_NetworkService_Network"><path codeLine="66" d="M620.5,274.673 C620.5,298.366 620.5,320.24 620.5,344.77 " fill="none" id="NetworkService-to-Network" style="stroke:#595959;stroke-width:1.0;stroke-dasharray:7.0,7.0;"/><polygon fill="#595959" points="620.5,350.77,624.5,341.77,620.5,345.77,616.5,341.77,620.5,350.77" style="stroke:#595959;stroke-width:1.0;"/><text fill="#000000" font-family="Verdana" font-size="13" lengthAdjust="spacing" textLength="41" x="578.5" y="308.7889">create</text></g><!--link NetworkService to Network--><g id="link_NetworkService_Network"><path codeLine="67" d="M660.5,286.673 C660.5,310.366 660.5,320.24 660.5,344.77 " fill="none" id="NetworkService-Network" style="stroke:#595959;stroke-width:1.0;"/><polygon fill="#595959" points="660.5,274.673,656.5,280.673,660.5,286.673,664.5,280.673,660.5,274.673" style="stroke:#595959;stroke-width:1.0;"/><polygon fill="#595959" points="660.5,350.77,664.5,341.77,660.5,345.77,656.5,341.77,660.5,350.77" style="stroke:#595959;stroke-width:1.0;"/><text fill="#000000" font-family="Verdana" font-size="13" lengthAdjust="spacing" textLength="8" x="663.3266" y="294.7023">1</text><text fill="#000000" font-family="Verdana" font-size="13" lengthAdjust="spacing" textLength="52" x="599.6828" y="324.8097">network</text><text fill="#000000" font-family="Verdana" font-size="13" lengthAdjust="spacing" textLength="8" x="621.6828" y="339.9425">1</text></g><!--SRC=[fLJ1ZjCm4BtdAqov16WF73XGeLw0efNexcehSUdsuCRJnDh4ZkpfmWhj5_49tFRBi1tRIKnsLm9NgZnZ-yrxR-oym0eQ86rDkSXGjWGbEKX4sH365HJ8fSZq3HSjLRGXDHU0ToqGgR2IMLRKL6loKGejQzY2kkK5a9yP8M-IPFvgILowLR9fSSrhkAHOsVGM5HVbO743udJHsifscGiSh5s2qbASVHgkCAuD_xkruY2O_iervcPfJhQ07yu4GWbgPRRVIiw6-mr1qGbqJDmHzsSH_ZfuxxL-PcLGQAVnMATlGP2g4Z2GMn0jJwg04AVXS7UeOBsv0if0-Jfz8hgeJ6ZJUMUUILz1JQqMNV5sjuzWNnHjAu_ZvX62ClOD5CAFl6CVxJ5TDp2eJWKcncne6toPau518yC2UEfEn3U2pu6NrK4gxMiFE-Ns7An0hDPSQTm2LKNbTqvIi4w2AQSx95jv5HtOc9lj3R3JgB-nGMVVRfzs-HpmkrGt_foFyj3ZqXgvxFmCalpjkpW-9ibOCknHFWnwUyRO2Ptn0nidewvQqb4XtT-Hs88Z5spKsyacFgSgi1jMyzn6IjD-1Hivwv_9qHMAxo89myxxB1ky3ZSMkvVltjlVd55T0TilLcJCY90bcJtyAioLGdZuFSkwDz6FIGZtplkHGBXBzHn4ybdy5uYayGb4kAL-pDxEoEiUndtJBShCtQbhOPOJwId2D8daq3I9GF5H4iVOECSawMCACyqaEVGqaoST_KynejldbFWpVm00]--></g></svg>